<?xml version="1.0" encoding="utf-8"?>
<!-- Generator: Adobe Illustrator 19.1.0, SVG Export Plug-In . SVG Version: 6.00 Build 0)  -->
<svg version="1.1" id="Layer_1" xmlns="http://www.w3.org/2000/svg" xmlns:xlink="http://www.w3.org/1999/xlink" x="0px" y="0px"
	 viewBox="0 0 820 312" style="enable-background:new 0 0 820 312;" xml:space="preserve">
<style type="text/css">
	.st0{fill:#226999;}
	.st1{fill:#F2CA69;}
	.st2{fill:#FFCC66;}
	.st3{font-family:'ArialMT';}
	.st4{font-size:25px;}
</style>
<image style="overflow:visible;" width="1640" height="624" xlink:href="../../../Downloads/facebook cover modified.jpg"  transform="matrix(1 0 0 1 -290.6667 -185.3333)">
</image>
<polygon class="st0" points="-290.7,-185.3 -132,-49.5 16,46 129,95 227.2,126.7 357.7,152 495,165 702,136 843,109 942,74.7 
	998,17.4 1091.1,-37.5 1159,-43.2 1250,-98.3 1249,-31.9 1201,8.1 1184,107 979.7,438.7 1142,438.7 1218,438.7 1349.3,438.7 
	1349.3,-185.3 204.1,-185.3 "/>
<g>
	<g>
		<path class="st1" d="M465.9,73.5c0.1-0.5,0.2-1,0.3-1.5c0.5-1.8,1-3.6,1.5-5.4c0.1-0.3,0.2-0.7,0.2-1c0.1-0.4,0-0.7-0.2-1
			c-0.8-1.5-1.3-3.1-1.6-4.8c-0.2-1.3-0.3-2.6-0.2-3.9c0.1-1.9,0.6-3.7,1.3-5.4c0.7-1.5,1.6-2.8,2.7-4c1.4-1.5,2.9-2.8,4.7-3.8
			c1.6-0.8,3.3-1.4,5-1.6c1.4-0.2,2.8-0.2,4.2-0.1c2.3,0.2,4.4,0.9,6.4,2.1c4,2.3,6.5,5.8,7.6,10.2c0.4,1.5,0.5,3.1,0.4,4.7
			c-0.2,3.4-1.4,6.4-3.4,9.1c-2.1,2.7-4.9,4.6-8.2,5.6c-1.7,0.5-3.4,0.7-5.1,0.6c-2.4-0.1-4.7-0.8-6.9-1.8c-0.1,0-0.2-0.1-0.3-0.1
			c-1.7,0.3-3.3,0.8-5,1.2c-1,0.3-2.1,0.5-3.1,0.8C466.1,73.4,466,73.4,465.9,73.5z M469.6,69.7c0.1,0,0.1,0,0.1,0
			c1.5-0.4,3-0.8,4.5-1.2c0.2-0.1,0.3,0,0.5,0.1c0.6,0.3,1.3,0.7,2,0.9c2.5,1,5,1.4,7.7,0.9c3.2-0.6,5.9-2.1,7.9-4.6
			c2.6-3.2,3.6-6.8,3-10.9c-0.3-1.8-0.9-3.4-1.9-4.9c-1.5-2.4-3.6-4.2-6.2-5.3c-2.5-1.1-5.2-1.3-7.9-0.8c-2.6,0.5-4.8,1.8-6.7,3.6
			c-1.1,1.1-2,2.3-2.7,3.7c-0.8,1.5-1.2,3.1-1.3,4.7c-0.1,0.8,0,1.6,0,2.4c0.1,1.1,0.2,2.2,0.7,3.2c0.5,1.1,1,2.1,1.5,3.2
			c0.1,0.1,0.1,0.3,0,0.4c-0.3,1-0.6,2.1-0.9,3.1C469.9,68.7,469.8,69.1,469.6,69.7z"/>
		<path class="st1" d="M486.4,64.8c-1,0-1.9-0.3-2.8-0.6c-1.7-0.6-3.2-1.5-4.5-2.7c-0.8-0.7-1.4-1.4-2.1-2.2c-0.9-0.9-1.7-2-2.2-3.2
			c-0.4-0.9-0.7-1.8-0.8-2.8c0-1.2,0.4-2.1,1.1-3c0.1-0.2,0.3-0.3,0.5-0.5c0.2-0.2,0.4-0.3,0.7-0.3c0.4,0,0.9,0,1.3,0
			c0.1,0,0.2,0,0.3,0.2c0.4,0.9,0.8,1.7,1.1,2.6c0.2,0.4,0.3,0.8,0.4,1.2c0.1,0.2,0,0.4-0.1,0.6c-0.2,0.3-0.4,0.5-0.5,0.8
			c-0.2,0.3-0.3,0.6-0.5,0.9c-0.1,0.2,0,0.5,0.1,0.7c0.9,1.3,1.9,2.4,3.1,3.3c0.8,0.6,1.7,1,2.6,1.3c0.1,0,0.2,0,0.3-0.1
			c0.5-0.7,1.1-1.3,1.6-1.9c0.1-0.1,0.2-0.1,0.3-0.1c1.3,0.6,2.6,1.2,3.8,1.8c0.1,0,0.2,0.2,0.1,0.2c-0.1,0.5-0.1,1-0.2,1.4
			c-0.1,0.7-0.6,1.2-1.2,1.6C488.1,64.6,487.4,64.8,486.4,64.8z"/>
	</g>
</g>
<path class="st1" d="M478.3,32.5c-0.1,0-0.2,0-0.3-0.1c0-4.4,0-8.8,0-13.2c-1.6,0-3.2,0-4.8,0c0-1.8,0-3.6,0-5.5c0.1,0,0.2,0,0.3,0
	c1.4,0,2.9,0,4.3,0c0.2,0,0.2,0,0.2-0.2c0-1.1,0-2.2,0-3.3c0-1,0-2,0.2-2.9c0.5-2.4,2.6-4.4,5-4.8c0.8-0.1,1.6-0.1,2.4-0.1
	c1.2,0,2.4,0.1,3.5,0.3c0.1,0,0.2,0.1,0.2,0.2c0,1.5,0,2.9,0,4.4c0,0,0,0,0,0.1c-0.1,0-0.3,0-0.4,0c-0.7,0-1.3,0-2,0
	c-0.5,0-0.9,0.1-1.4,0.2c-0.7,0.2-1.1,0.6-1.4,1.3c-0.2,0.5-0.3,1-0.3,1.6c0,1.1,0,2.2,0,3.3c0,0.1,0.1,0.1,0.2,0.1c0.3,0,0.6,0,1,0
	c1.3,0,2.5,0,3.8,0c0.1,0,0.2,0,0.3,0c0,0.3-0.1,0.7-0.1,1c-0.2,1.4-0.5,2.8-0.7,4.2c0,0.2-0.1,0.2-0.3,0.2c-1.3,0-2.5,0-3.8,0
	c-0.2,0-0.3,0-0.3,0.3c0,4.2,0,8.4,0,12.6c0,0.3,0,0.3-0.3,0.4c0,0-0.1,0-0.1,0C481.7,32.5,480,32.5,478.3,32.5z"/>
<path class="st1" d="M482.6-41.6c9.3-0.1,17.5,7.6,17.4,17.7c-0.1,9.1-7.7,17.5-18,17.1c-9.6-0.3-17.1-8.4-16.9-17.9
	C465.2-33.6,472.8-41.7,482.6-41.6z M476.5-23.1c0,0.1,0,0.2,0,0.3c0.1,1.3,0.3,2.7,0.4,4c0.3,2.3,1,4.6,2.1,6.7
	c0.4,0.8,0.9,1.5,1.6,2.1c1.1,1.1,3,1.1,4.1-0.2c1.1-1.3,1.9-2.8,2.5-4.4c1-2.7,1.3-5.5,1.4-8.3c0-0.1,0-0.1,0-0.2
	C484.5-23.1,480.5-23.1,476.5-23.1z M476.4-25.4c4.1,0,8.1-0.2,12.2,0.3c0-0.1,0-0.2,0-0.2c-0.1-1.1-0.1-2.2-0.2-3.3
	c-0.3-2.6-0.9-5-2.1-7.3c-0.5-0.9-1.1-1.8-1.9-2.5c-1-0.9-2.4-1-3.4-0.2c-0.5,0.4-0.9,0.8-1.2,1.3c-1,1.2-1.6,2.7-2,4.1
	c-0.5,1.6-0.8,3.2-1,4.9C476.6-27.5,476.5-26.5,476.4-25.4z M467.3-22.8c0.6,2.9,1.5,5.6,3.3,8c1.8,2.3,4.2,3.9,6.9,5
	c-0.1-0.2-0.1-0.3-0.2-0.4c-0.9-1.5-1.5-3-2-4.6c-0.8-2.6-1.1-5.2-1.3-7.9c0-0.3-0.1-0.4-0.4-0.4c-1.3,0-2.5,0-3.8,0
	C469.1-23,468.2-22.9,467.3-22.8z M477.3-38.4c-2.6,1.1-4.9,2.7-6.6,4.8c-1.9,2.3-2.8,5.1-3.3,8.1c0.5,0.1,1.1,0.2,1.6,0.2
	c1.6,0,3.3-0.1,4.9-0.1c0.2,0,0.3-0.1,0.3-0.3c0.1-1.2,0.2-2.3,0.3-3.5c0.3-2.2,0.8-4.4,1.7-6.5C476.5-36.6,476.9-37.5,477.3-38.4z
	 M487.6-9.9c6-2.2,9.8-7.9,9.8-13.1c0,0-0.1,0-0.1,0c-2,0-4,0-6,0c-0.2,0-0.2,0.1-0.3,0.3c-0.2,1.4-0.3,2.8-0.5,4.3
	c-0.4,2.6-1.1,5.2-2.4,7.6C488-10.7,487.8-10.3,487.6-9.9z M497.5-25.5c-0.3-7.1-5.8-11.6-9.8-12.9c2.2,4,3.2,8.4,3.3,12.9
	C493.2-25.5,495.3-25.5,497.5-25.5z"/>
<g>
	<path class="st1" d="M482.7-52.6c-4.1,0-8.2,0-12.3,0c-0.8,0-1.6,0-2.3-0.1c-1.1-0.1-1.9-1-2.2-2.3c-0.2-0.8-0.1-1.7-0.1-2.5
		c0-1.6,0-3.3,0-4.9c0-4,0-8.1,0-12.1c0-0.8,0-1.6,0.2-2.3c0.3-1.1,1.2-1.9,2.3-1.9c0.6,0,1.3-0.1,1.9-0.1c8.5,0,17.1,0,25.6,0
		c0.4,0,0.7,0,1.1,0.1c1.3,0.3,2.1,1.2,2.1,2.7c0,3.1,0,6.1,0,9.2c0,3.7,0,7.5,0,11.2c0,0.4,0,0.8-0.1,1.2c-0.3,1.1-1.2,1.9-2.3,1.9
		c-2,0-4.1,0.1-6.1,0.1C487.9-52.6,485.3-52.6,482.7-52.6C482.7-52.6,482.7-52.6,482.7-52.6z M468-76.5c0,7.2,0,14.3,0,21.4
		c0.1,0,0.1,0,0.1,0c2.6,0,5.3,0.1,7.9,0.1c4.9,0,9.9,0,14.8,0c1.9,0,3.9,0.1,5.8-0.2c0.2,0,0.3-0.1,0.3-0.4c0-6.9,0-13.7,0-20.6
		c0-0.1,0-0.2,0-0.3C487.3-76.7,477.7-76.5,468-76.5z"/>
	<path class="st1" d="M470.1-73.9c0.9-0.1,1.7-0.2,2.6,0.3c2.9,2,5.9,3.8,8.9,5.8c0.5,0.3,1,0.4,1.5,0.1c0.8-0.5,1.5-0.9,2.3-1.4
		c2.6-1.7,5.2-3.3,7.9-5c0.4-0.2,0.4-0.2,0.7,0.1c0.4,0.4,0.7,0.7,1.1,1.1c-0.3,0.3-0.6,0.5-0.9,0.8c-1.4,1.1-2.9,2-4.4,3
		c-1.9,1.2-3.8,2.4-5.7,3.7c-0.4,0.3-0.9,0.5-1.3,0.7c-0.1,0.1-0.2,0.1-0.3,0c-0.5-0.2-1.1-0.4-1.6-0.8c-3.3-2.1-6.6-4.3-9.8-6.4
		c-0.4-0.3-0.7-0.6-0.7-1.1C470.2-73.2,470.2-73.5,470.1-73.9z"/>
</g>
<text transform="matrix(1 0 0 1 511.833 -15.5609)" class="st2 st3 st4">WWW.GO4SEASON.COM</text>
<text transform="matrix(1 0 0 1 508.833 -57.1859)" class="st2 st3 st4">INFO@GO4SEASON.COM</text>
<text transform="matrix(1 0 0 1 510.083 25.5641)" class="st2 st3 st4">FACEBOOK.COM / GO4SEASON</text>
<text transform="matrix(1 0 0 1 510.083 66.3142)" class="st2 st3 st4">+49 163 3671143</text>
<g>
	<path class="st1" d="M231.3,12.9c0-1.6,0-3.2,0-4.9c1.4,0,2.8,0,4.1,0c1,0,1,0,1.3-0.9c1.5-4.7,4.7-7.6,9.5-8.7
		c0.8-0.2,1.7-0.2,2.5-0.2c5.3,0,10.7,0,16,0c0.2,0,0.5,0,0.8,0c0-0.4,0-0.7,0-1c0-1.9,0-3.8,0-5.7c0-0.4-0.1-0.6-0.6-0.6
		c-4.5-0.3-9-1.3-13.2-2.8c-3.8-1.4-7.5-3.1-11-5.3c-4.8-3-9-6.7-12.6-11c-3.4-4.1-6.1-8.6-8.2-13.6c-3.4-8.1-4.7-16.5-4.1-25.2
		c0.7-8.8,3.5-17,8.1-24.5c1.6-2.5,3.4-4.8,5.2-7c1.2,1.2,2.3,2.3,3.4,3.4c-9.3,11.1-13.4,23.8-11.7,38.3
		c1.3,11.2,6.2,20.9,14.2,28.9c5.9,5.8,12.9,9.9,20.9,12.2c8,2.3,16.1,2.4,24.2,0.7c8.1-1.8,15.3-5.6,21.5-11
		c1.2,1.1,2.3,2.2,3.5,3.4c-10,8.8-21.6,13.3-34.9,13.7c0,2.3,0,4.6,0,7c0.3,0,0.6,0,0.9,0c5.2,0,10.3,0,15.5,0
		c2.3,0,4.4,0.4,6.4,1.4c2.1,1.1,3.7,2.7,4.9,4.8c0.5,0.9,0.8,1.9,1.2,2.9c0.2,0.5,0.4,0.7,0.9,0.7c1.4-0.1,2.9,0,4.4,0
		c0,1.6,0,3.2,0,4.9C280.2,12.9,255.8,12.9,231.3,12.9z"/>
	<path class="st1" d="M271.5-134.9c0.9,0.6,1.9,1.2,2.8,1.7c2.1,1.3,4.3,2.7,6.4,4.1c0.3,0.2,0.6,0.5,0.9,0.7
		c7.3,7.3,14.6,14.6,22,21.9c0.9,0.9,1.9,0.8,3,0.6c5.1-1.2,10.1-2.5,15.2-3.7c6.2-1.5,12.4-3,18.6-4.5c2.3-0.6,4.7-1.1,7-1.7
		c3.9-0.9,7.7-1.9,11.6-2.8c0.2,0,0.4,0,0.6,0.1c0.6,0.5,1.1,1,1.8,1.6c-0.7,0.3-1.3,0.6-1.9,0.8c-13.4,5.9-26.7,11.7-40.1,17.6
		c-0.4,0.2-0.8,0.3-1.3,0.5c-2.3,1-2.7,3.1-1,4.9c2.2,2.2,4.3,4.3,6.5,6.5c7.7,7.7,15.5,15.4,23.2,23.2c0.8,0.9,1.8,1.1,3,0.9
		c3.7-0.5,7.4-1.1,11.1-1.6c0.2,0,0.4,0,0.5,0.2c0.5,0.4,0.9,0.9,1.4,1.4c-0.2,0.1-0.4,0.2-0.6,0.2c-4,1.3-8.1,2.6-12.1,4
		c-0.9,0.3-1.5,0.8-1.8,1.7c-1,2.8-1.9,5.6-2.8,8.4c-0.5,1.5-1,3-1.6,4.8c-0.6-0.6-1-1.1-1.5-1.7c-0.1-0.2-0.1-0.4-0.1-0.7
		c0.5-3.5,1-7,1.5-10.5c0-0.2,0-0.4,0.1-0.6c0.2-1.1-0.2-2.1-1-2.9c-2.6-2.5-5.1-5.1-7.6-7.6c-7.2-7.1-14.3-14.3-21.5-21.4
		c-0.3-0.2-0.5-0.5-0.8-0.7c-1.6-1.7-3.7-0.7-4.5,0.9c-1.2,2.5-2.3,5.1-3.5,7.6c-3.9,8.5-7.8,17-11.7,25.4
		c-1.9,4.1-3.8,8.1-5.6,12.2c-0.6-0.6-1.2-1.1-1.8-1.7c-0.1-0.1-0.1-0.3,0-0.4c0.4-1.4,0.8-2.8,1.1-4.2c0.3-1.2,0.6-2.3,0.9-3.5
		c0.6-2.3,1.2-4.5,1.8-6.8c0.5-1.8,1-3.6,1.5-5.3c1.4-5.1,2.7-10.2,4.1-15.3c1.2-4.6,2.5-9.3,3.7-14c0.5-1.8,1-3.6,1.5-5.5
		c0.3-1.2,0-2.3-0.9-3.2c-1.5-1.4-2.9-2.9-4.3-4.3c-5.8-5.8-11.6-11.5-17.3-17.4c-1-1-1.6-2.3-2.4-3.4c-1.3-2-2.5-3.9-3.8-5.9
		c-0.1-0.2-0.2-0.5-0.3-0.7C271.3-134.9,271.4-134.9,271.5-134.9z"/>
	<path class="st1" d="M232.4-53.1c-1-1-1.9-1.9-3-2.7c-1.6-1.2-2.3-2.6-2.3-4.6c0.1-1.9,0-3.8,0.1-5.7c0.2-5.3,1.8-10.3,4-15.1
		c0.1-0.2,0.4-0.4,0.6-0.4c4.3,0,8.6,0,12.9,0c0.2,0,0.5,0.1,0.7,0.3c2.3,1.5,4.5,3,6.8,4.6c1,0.7,2,0.7,3.1,0.1
		c1.4-0.7,2.8-1.4,4.2-2.1c0.2-0.1,0.5-0.2,0.7-0.2c2.8,0,5.5,0,8.3,0c0.3,0,0.7,0.1,1,0.3c2,1.3,4,2.6,5.9,4
		c0.2,0.2,0.4,0.4,0.6,0.6c0.6,1.1,1.2,2.2,1.7,3.3c0.2,0.3,0.2,0.7,0.2,1.1c0,2.1,0,4.2,0,6.4c0,0.6,0.2,1.3,0.4,1.9
		c0.5,1.2,1.2,2.4,1.8,3.6c0.1,0.3,0.1,0.7,0.1,0.9c-0.4,1.4-0.9,2.7-1.3,4.1c-0.1,0.4-0.3,0.6-0.8,0.5c-0.9,0-1.8,0-2.7,0
		c-1,0-1.9,0.4-2.4,1.3c-1.7,2.6-3.4,5.2-5.1,7.8c-0.5,0.8-0.6,1.6-0.4,2.5c0.6,2.2,1.1,4.3,1.6,6.5c0.1,0.5,0,0.6-0.5,0.6
		c0,0-0.1,0-0.1,0c-2.3,0-1.8,0.4-2.5-1.8c-1.4-4-2.7-8.1-4-12.1c-0.2-0.5-0.5-1.1-0.9-1.5c-2.5-3.4-5-6.7-7.5-10.1
		c-0.6-0.9-1.5-1.3-2.5-1.3c-1.7,0-3.4-0.1-5,0c-1.2,0.1-2.4,0.6-3.6,1c-1.6,0.5-3.2,1.1-4.8,1.6c-0.8,0.3-1.5,0.7-2,1.3
		C234.6-55.3,233.5-54.2,232.4-53.1z"/>
	<path class="st1" d="M230.1-47.9c0.2,0.1,0.4,0.2,0.5,0.3c1.4,1,2.7,0.9,4-0.3c1.3-1.3,2.7-2.6,4-4c0.4-0.4,0.8-0.5,1.4-0.5
		c1.1,0.2,2-0.2,2.7-1.1c0.3-0.3,0.7-0.5,1.1-0.7c0.7-0.3,1.5-0.5,2.2-0.7c0.6-0.1,1.2-0.1,1.8-0.1c2,0,2,0,3.2,1.6
		c1.7,2.2,3.4,4.5,5.1,6.7c0.7,0.9,1,2,1.4,3c0.6,1.6,1.1,3.2,1.6,4.8c0.8,2.3,1.5,4.5,2.3,6.8c0.2,0.7,0.5,1.4,0.7,2.1
		c0.4,1.1,1.3,1.6,2.4,1.6c2.7,0.1,5.4,0.1,8.1,0c1.8,0,3-1.7,2.5-3.5c-0.7-2.9-1.4-5.8-2.2-8.7c-0.1-0.4-0.1-0.7,0.1-1.1
		c1.1-1.6,2.2-3.3,3.3-4.9c0.3-0.4,0.5-0.6,1-0.5c0.9,0,1.7,0,2.6,0c0.2,0,0.4,0,0.7,0.1c-0.1,0.6-0.2,1.2-0.4,1.8
		c-0.3,1,0,1.9,0.7,2.6c1.8,1.8,3.6,3.6,5.4,5.5c1.7,1.7,4.1,0.9,4.7-0.9c0.2-0.6,0.5-1.2,0.8-1.8c0.1-0.3,0.3-0.5,0.6-0.9
		c0.5,1.5,1,2.8,1.4,4.2c0.3,1,0.8,1.9,1.5,2.6c0.8,0.8,1.5,1.6,2.3,2.3c0.4,0.4,0.3,0.6,0,0.9c-1.4,1.1-2.7,2.2-4.2,3.2
		c-2.7,1.9-5.6,3.4-8.8,4.6c-5.2,1.9-10.5,2.6-16,2.5c-8.2-0.2-15.6-2.6-22.4-7.2c-7.4-4.9-12.7-11.6-16-19.9
		c-0.1-0.1-0.1-0.3-0.1-0.4C230.1-47.7,230.1-47.8,230.1-47.9z"/>
	<path class="st1" d="M234.7-87.1c0.7-0.9,1.3-1.9,2-2.7c2.4-2.8,5-5.4,8-7.6c4-2.9,8.4-5.1,13.1-6.5c1.9-0.6,3.9-0.9,5.9-1.2
		c3.3-0.6,6.7-0.5,10-0.3c3.2,0.3,6.3,1,9.4,2c3.7,1.2,7.2,2.9,10.5,5.1c0.4,0.3,0.5,0.5,0.4,1c-0.7,2.4-1.3,4.7-1.9,7.1
		c-1.1,4-2.1,7.9-3.1,11.9c-1.4,5.3-2.8,10.5-4.2,15.8c-0.1,0.4-0.2,0.7-0.3,1.3c-0.7-1-1.3-1.9-1.3-3c0-2.1,0.1-4.1,0-6.2
		c0-0.6-0.2-1.3-0.4-1.9c-0.7-1.6-1.5-3.2-2.4-4.7c-0.3-0.5-0.7-1.1-1.3-1.4c-2.5-1.7-5.1-3.4-7.6-5.1c-0.6-0.4-1.1-0.5-1.8-0.5
		c-3.3,0-6.6,0-10,0c-0.8,0-1.6,0.2-2.3,0.6c-1,0.5-2,0.9-2.9,1.4c-0.3,0.2-0.6,0.1-0.9-0.1c-2-1.4-4.1-2.7-6.2-4
		c-0.5-0.3-1.2-0.5-1.9-0.5c-3.2-0.1-6.4,0-9.6,0c-0.4,0-0.7,0-1.1,0C234.8-86.9,234.8-87,234.7-87.1z M279.3-96.4
		c-1.6-0.8-3.1-1.6-4.7-2.4c-0.6,1.1-1.1,2.1-1.6,3.2c-0.3,0.5-0.6,0.7-1.2,0.7c-0.7,0-1.4,0-2.1,0c-0.7,0-0.8-0.1-0.8-0.8
		c0-1.3,0-2.6,0-4c0-0.4-0.2-0.6-0.6-0.6c-0.5,0-1,0-1.5,0c-1.5-0.1-2.6,0.5-3.5,1.7c-0.8,1-1.6,1.9-2.3,2.9c-0.5,0.7-1,0.9-1.8,0.8
		c-1.1-0.1-2.3,0-3.4,0c0,1.8,0,3.5,0,5.2c0.2,0,0.3,0,0.5,0c6.1,0,12.1,0,18.2,0c1,0,1.8-0.4,2.2-1.3c0.7-1.4,1.4-2.7,2.1-4.1
		C278.8-95.4,279-95.8,279.3-96.4z"/>
	<path class="st1" d="M347.9,8.1c-4.9,0-9.7,0-14.6,0c0-6.5,0-13,0-19.5c4.9,0,9.7,0,14.6,0C347.9-5,347.9,1.5,347.9,8.1z"/>
	<path class="st1" d="M393.3,27.9c1.3,0,2.5,0,3.7,0c0.2,0,0.4,0.2,0.5,0.4c4.2,5,8.4,10,12.6,15c0.1,0.1,0.1,0.1,0.3,0.3
		c0-5.3,0-10.5,0-15.7c1.1,0,2,0,3,0c0,6.8,0,13.7,0,20.6c-1,0-1.9,0-2.8,0c-0.2,0-0.3-0.2-0.4-0.3c-3.8-4.5-7.5-9-11.3-13.6
		c0-0.1-0.1-0.1-0.1-0.2c-0.1,0-0.1,0.1-0.2,0.1c0,4.6,0,9.3,0,14c-1,0-2,0-3,0c0-0.2,0-0.5,0-0.7c0-5.5,0-11,0-16.5
		c0-0.4-0.2-0.8-0.4-1C394.7,29.5,394,28.8,393.3,27.9z"/>
	<path class="st1" d="M190.1,38c0-5.9,4.9-10.7,11-10.7c6.3,0,11.3,4.8,11.2,11c-0.1,6.1-4.9,10.5-11,10.7
		C195.1,49.2,190.1,44.1,190.1,38z M209.3,38c0-0.3,0-0.7-0.1-1.1c-0.1-0.4-0.2-0.8-0.3-1.2c-1.2-3.3-4.1-5.4-7.8-5.3
		c-5.2,0-8.8,4.3-7.9,9.4c0.7,3.9,4.7,6.8,9.2,6.2C206.5,45.4,209.2,42.3,209.3,38z"/>
	<path class="st1" d="M361.4,38c-0.1-5.7,4.8-10.5,10.8-10.6c6.3-0.1,11.3,4.8,11.3,10.8c0,6.4-5,10.7-11.1,10.8
		C366.2,49.1,361.4,44.2,361.4,38z M371.9,30.3c-1.2,0-2.7,0.5-4.1,1.4c-3.2,2.1-4.4,6.7-2.6,10c2.4,4.3,8,5.6,12,2.8
		c3-2.1,3.9-5.7,3-8.7C379.2,32.4,376,30.3,371.9,30.3z"/>
	<path class="st1" d="M179.1,30.6c-0.6,0.7-1.2,1.4-1.9,2.2c-1.2-1-2.5-1.8-4-2.2c-4.4-1.2-8.9,1.4-9.9,5.5c-1,4,0.9,7.5,4.4,9.1
		c3,1.3,5.8,1,8.5-0.9c0.2-0.2,0.4-0.5,0.4-0.8c0-1.1,0-2.2,0-3.3c-0.8,0-1.5,0-2.2,0c-0.4,0-0.6-0.1-0.7-0.5
		c-0.3-0.8-0.7-1.7-1.1-2.5c2.3,0,4.6,0,6.9,0c0,0.2,0,0.4,0,0.6c0,2.3,0,4.6,0,6.8c0,0.3-0.2,0.7-0.4,0.9c-2.1,2.2-4.8,3.3-7.9,3.4
		c-4.8,0.1-9.1-2.9-10.6-7.3c-2.2-6.7,1.7-12.7,8-14.1c3.7-0.8,7,0.1,9.9,2.6c0.1,0.1,0.2,0.2,0.3,0.3C179,30.5,179,30.5,179.1,30.6
		z"/>
	<path class="st1" d="M264.9,32.8c-0.8-0.5-1.4-1-2.1-1.4c-1.7-1-3.6-1.2-5.5-0.8c-1.1,0.2-2,0.8-2.6,1.8c-1.1,1.8-0.1,3.3,1.7,3.6
		c1.3,0.2,2.6,0.2,3.9,0.3c1.2,0.1,2.4,0.2,3.5,0.5c2.4,0.6,3.7,2.2,3.9,4.7c0.2,2.7-0.8,4.8-3.2,6c-3.9,2.1-8.8,2.2-12.6-0.9
		c-0.7-0.5-1.2-1.2-1.9-1.8c0.8-0.7,1.4-1.4,2.1-2c0.3,0.3,0.7,0.7,1,1c2.7,2.6,6.5,2.7,9.5,1.3c1.6-0.7,2.1-2,1.9-3.5
		c-0.2-1.2-0.9-1.8-2-2.1c-1.1-0.2-2.2-0.3-3.3-0.3c-1.6-0.1-3.2-0.1-4.7-0.6c-3.8-1.2-4.3-5-2.8-7.5c1.4-2.3,3.5-3.5,6.1-3.6
		c3-0.2,5.8,0.5,8.2,2.5c0.3,0.2,0.5,0.5,0.8,0.8C266.1,31.3,265.5,32.1,264.9,32.8z"/>
	<path class="st1" d="M333.9,44.8c0.7-0.7,1.4-1.3,2-1.9c1,0.8,1.9,1.7,3,2.2c2.8,1.4,5.6,1.2,8.3-0.5c1.1-0.7,1.4-1.8,1.2-3.1
		c-0.2-1.2-1-1.9-2.1-2.1c-1.5-0.2-3-0.2-4.4-0.4c-1.2-0.1-2.4-0.3-3.6-0.6c-3.5-1.1-4.2-4.7-2.8-7.3c1.2-2.3,3.4-3.5,5.9-3.8
		c3.3-0.3,6.3,0.5,8.9,2.8c0.1,0.1,0.3,0.2,0.5,0.4c-0.7,0.8-1.3,1.5-1.9,2.3c-0.7-0.5-1.4-1-2.1-1.4c-2.3-1.1-4.7-1.6-7-0.2
		c-1,0.6-1.6,1.6-1.5,2.9c0.1,1.1,1,1.6,2,1.8c0.6,0.2,1.3,0.2,2,0.2c1.4,0.1,2.9,0.1,4.3,0.3c2,0.3,3.9,1.1,4.7,3.2
		c1,2.9,0.4,6-2.6,7.7c-4.5,2.6-10.5,2.3-14.4-2.2C334.1,45,334,44.9,333.9,44.8z"/>
	<path class="st1" d="M278.9,28c4.8,0,9.6,0,14.5,0c0,1,0,2,0,3c-3.8,0-7.6,0-11.4,0c0,2.1,0,4.1,0,6.1c2.7-1.1,5.5-0.5,8.3-0.7
		c0,1.1,0,2,0,3.1c-1.2,0-2.4,0-3.6,0c-1.1,0-2.2,0.1-3.2,0.2c0,0-0.1,0-0.1,0c-1.3,0.3-1.4,0.4-1.4,1.7c0,1.3,0,2.6,0,4
		c4.2,0,8.4,0,12.7,0c0,1,0,2,0,3.1c-5.2,0-10.4,0-15.7,0C278.9,41.7,278.9,34.8,278.9,28z"/>
	<path class="st1" d="M311.6,27.6c1.1,0,2,0,2.9,0c0.4,0,0.5,0.3,0.6,0.5c2.1,4.5,4.3,9,6.4,13.5c1,2.1,2,4.2,3,6.3
		c0.1,0.2,0.2,0.4,0.3,0.7c-1.1,0-2.1,0-3.1,0c-0.1,0-0.3-0.2-0.4-0.4c-0.4-0.8-0.7-1.6-1.1-2.4c-0.1-0.1-0.3-0.3-0.4-0.3
		c-2.6,0-5.3,0-7.9,0.1c-1.2,0.1-2.5,0.4-3.5,1.2c-0.5,0.4-0.8,0.9-1.2,1.4c-0.2,0.3-0.3,0.4-0.7,0.4c-0.9,0-1.8,0-2.8,0
		c0.1-0.3,0.2-0.5,0.3-0.6c2.8-5.7,5.5-11.5,8.3-17.2c0.2-0.4,0.3-0.8,0-1.3C312.1,28.9,311.9,28.3,311.6,27.6z M314.2,33.8
		c-1.5,3.3-3,6.5-4.5,9.8c2.9-1.5,6-0.9,9-1.1C317.2,39.6,315.8,36.7,314.2,33.8z"/>
	<path class="st1" d="M222.6,43.3c0-1,0-1.9,0-2.9c0-0.2,0.2-0.4,0.3-0.5c3.2-3.9,6.4-7.8,9.6-11.7c0.2-0.2,0.5-0.3,0.8-0.4
		c1.1,0,2.1,0,3.2,0c0,4.2,0,8.3,0,12.5c1,0,2,0,3.1,0c-0.4,1.1-0.7,2-1.1,2.9c0,0.1-0.3,0.1-0.4,0.1c-0.5,0-1,0-1.5,0
		c0,1.8,0,3.5,0,5.3c-1,0-2,0-3,0c0-1.7,0-3.5,0-5.3C229.8,43.3,226.2,43.3,222.6,43.3z M233.4,40.2c0-3,0-5.9,0-8.9
		c-2.4,3-4.7,5.9-7,8.9C228.8,40.2,231.1,40.2,233.4,40.2z"/>
	<path class="st1" d="M306.2-70.8c1.3,1.3,2.5,2.5,3.7,3.7c0.7,0.7,1.3,1.5,2.4,1.6c0.1,0,0.3,0.4,0.3,0.6c0,1.7,0,3.3-0.1,5
		c-0.1,1.6-0.4,3.2-0.5,4.7c0,0.4-0.3,0.4-0.6,0.4c-1.9,0-3.9,0-5.8,0c-1,0-2.1,0-3.1,0c-1.1,0-2,0.4-2.8,1.2
		c-0.7,0.7-1.5,1.4-2.2,2.1C300.2-57.9,303.2-64.3,306.2-70.8z"/>
	<path class="st1" d="M310-49.4c-0.1,0.7-0.2,1.5-0.4,2.1c-1.7,4.6-4.3,8.7-7.5,12.3c-0.1,0.1-0.1,0.2-0.2,0.3
		c-0.6-0.6-1-1.1-1.6-1.5c-1.1-0.9-1.8-2.1-2.1-3.4c-0.3-1.2-0.7-2.3-1.2-3.5c-0.1-0.3,0-0.5,0.2-0.8c1.8-1.8,3.6-3.6,5.4-5.4
		c0.2-0.1,0.4-0.3,0.6-0.3c2.1,0,4.2,0,6.3,0C309.7-49.5,309.8-49.5,310-49.4z"/>
	<path class="st1" d="M323.5-11.5c1.6,0,3.2,0,4.8,0c0,6.5,0,13,0,19.5c-1.6,0-3.2,0-4.8,0C323.5,1.6,323.5-4.9,323.5-11.5z"/>
	<path class="st1" d="M357.7,8.1c-1.6,0-3.2,0-4.8,0c0-6.5,0-13,0-19.5c1.6,0,3.2,0,4.8,0C357.7-5,357.7,1.5,357.7,8.1z"/>
	<path class="st1" d="M301,63.5c0.5,0,1,0,1.4,0c0.2,0,0.4,0.3,0.4,0.4c0.9,2.5,1.7,5.1,2.5,7.6c0,0,0,0.1,0.1,0.2
		c0.2-0.5,0.4-0.9,0.5-1.3c0.7-2.1,1.4-4.3,2.1-6.4c0.1-0.3,0.3-0.5,0.6-0.5c0.4,0,0.8,0,1.3,0c-1.2,3.7-2.4,7.4-3.5,11.1
		c-0.5,0-1,0-1.5,0c-0.1,0-0.3-0.2-0.4-0.4c-0.6-1.9-1.2-3.8-1.9-5.7c0-0.1-0.1-0.2-0.2-0.4c-0.4,1.1-0.7,2.1-1,3
		c-0.3,1-0.6,2.1-1,3.1c0,0.1-0.2,0.3-0.4,0.3c-0.5,0-1,0-1.5,0c-1.3-3.7-2.5-7.4-3.8-11.1c0.5,0,1,0,1.5,0c0.1,0,0.3,0.3,0.4,0.4
		c0.8,2.3,1.6,4.6,2.5,6.9c0.1,0.3,0.2,0.5,0.3,0.9c0.2-0.6,0.4-1.2,0.6-1.7c0.4-1.3,0.8-2.5,1.2-3.8c0.3-0.8,0.3-1.6-0.1-2.4
		C301.1,63.9,301.1,63.8,301,63.5z"/>
	<path class="st1" d="M165.2,63.5c0.5,0,0.9,0,1.4,0c0.2,0,0.4,0.3,0.4,0.4c0.9,2.4,1.7,4.9,2.6,7.3c0,0.1,0.1,0.2,0.2,0.5
		c0.5-1.6,1-3.2,1.5-4.6c0.4-1.2,0.8-2.3-0.1-3.6c0.7,0,1.1,0,1.6,0c0.1,0,0.3,0.3,0.4,0.5c0.8,2.4,1.6,4.8,2.4,7.1
		c0.1,0.2,0.1,0.3,0.2,0.6c0.3-0.9,0.6-1.8,0.9-2.6c0.6-1.7,1.1-3.5,1.7-5.2c0.1-0.4,0.3-0.6,0.7-0.5c0.4,0,0.7,0,1.2,0
		c-0.3,0.8-0.5,1.6-0.7,2.3c-0.9,2.7-1.7,5.4-2.6,8.1c-0.2,0.5-0.4,0.8-1,0.7c-0.1,0-0.2,0-0.2,0c-0.6,0.1-0.9-0.2-1.1-0.8
		c-0.6-1.9-1.2-3.7-1.9-5.7c-0.3,0.9-0.6,1.7-0.8,2.4c-0.4,1.2-0.8,2.5-1.2,3.7c-0.1,0.3-0.2,0.4-0.5,0.4c-1.3,0-1.4,0.1-1.8-1.2
		c-1.1-3.2-2.1-6.3-3.2-9.5C165.2,63.8,165.2,63.7,165.2,63.5z"/>
	<path class="st1" d="M398.6,63.6c0.2,0,0.3-0.1,0.4-0.1c1.9,0,3.9,0,5.8,0c1.3,0,2.3,0.6,2.8,1.8c0.5,1.2,0.5,2.3-0.3,3.3
		c-0.3,0.4-0.8,0.7-1.2,1c-0.2,0.1-0.4,0.2-0.7,0.4c0.8,1.2,0.9,3.1,3,3c0,0.5,0,1,0,1.5c-1.2,0.3-2.5-0.1-3.1-1.2
		c-0.5-0.9-1-1.9-1.5-2.9c-0.1-0.3-0.3-0.4-0.7-0.4c-0.7,0.1-1.4,0-2.1,0.1c-0.8,0.1-0.9,0.2-0.9,1c0,1.1,0,2.3,0,3.5
		c-0.5,0-1,0-1.6,0C398.6,71,398.6,67.3,398.6,63.6z M400.2,68.6c1.3-0.1,2.5-0.1,3.7-0.2c0.3,0,0.7,0,1,0c0.8-0.1,1.4-0.7,1.4-1.5
		c0-1-0.5-1.6-1.4-1.6c-1.4,0-2.9,0-4.3,0c-0.1,0-0.4,0.2-0.4,0.3C400.2,66.6,400.2,67.6,400.2,68.6z"/>
	<path class="st1" d="M349.7,70c1.4,2.9,1.4,2.9,3,3c0,0.5,0,1,0,1.5c-1.2,0.3-2.5-0.2-3.1-1.2c-0.5-0.9-1-1.9-1.5-2.9
		c-0.1-0.3-0.3-0.4-0.6-0.4c-0.7,0.1-1.5,0.1-2.2,0.1c-0.5,0-0.8,0.3-0.8,0.9c0.1,1.2,0,2.3,0,3.5c-0.6,0-1.1,0-1.6,0
		c0-3.7,0-7.3,0-11c0.1,0,0.3-0.1,0.4-0.1c1.9,0,3.9,0,5.8,0c1.3,0,2.2,0.6,2.8,1.7c0.6,1.2,0.5,2.3-0.2,3.4
		c-0.3,0.4-0.7,0.6-1.1,0.9C350.3,69.8,350,69.9,349.7,70z M344.6,65.2c0,1.2,0,2.4,0,3.4c1.1-0.1,2.1-0.2,3.2-0.2c0.5,0,1,0,1.5,0
		c0.8-0.1,1.3-0.7,1.4-1.5c0-0.9-0.5-1.6-1.3-1.6C347.8,65.2,346.2,65.2,344.6,65.2z"/>
	<path class="st1" d="M276.3,70c0.8,1.2,1,3.1,3,3c0,0.5,0,1,0,1.5c-1.4,0.3-2.5-0.2-3.2-1.4c-0.5-0.9-0.9-1.8-1.3-2.7
		c-0.2-0.3-0.4-0.5-0.7-0.4c-0.7,0.1-1.5,0.1-2.2,0.1c-0.5,0-0.8,0.3-0.8,0.9c0.1,1.2,0,2.4,0,3.6c-0.5,0-1,0-1.6,0
		c0-3.7,0-7.4,0-11.1c0.6,0,1.1,0,1.6,0c1.5,0,3,0,4.5,0c1.2,0,2.2,0.6,2.8,1.7c0.6,1.2,0.5,2.4-0.3,3.5c-0.3,0.4-0.8,0.6-1.2,0.9
		C276.8,69.8,276.6,69.9,276.3,70z M271.1,68.6c1.4-0.1,2.7-0.1,4.1-0.2c0.3,0,0.5,0,0.8-0.1c0.8-0.1,1.3-0.8,1.2-1.6
		c0-0.9-0.5-1.5-1.4-1.6c-1.5,0-3,0-4.5,0c-0.1,0-0.1,0.1-0.2,0.1C271.1,66.4,271.1,67.6,271.1,68.6z"/>
	<path class="st1" d="M215.1,67c0,2.6,0,5.1,0,7.6c-0.5,0-1,0-1.6,0c0-0.2,0-0.4,0-0.6c0-2.6,0-5.2,0-7.8c0-0.8-0.1-1.4-0.7-1.9
		c-0.2-0.2-0.3-0.4-0.6-0.7c0.7,0,1.3,0,1.9,0c0.2,0,0.4,0.2,0.5,0.4c2.1,2.5,4.3,5.1,6.4,7.7c0.1,0.1,0.2,0.2,0.3,0.4
		c0,0,0.1-0.1,0.1-0.1c0-2.8,0-5.5,0-8.3c0.6,0,1.1,0,1.6,0c0,3.7,0,7.4,0,11.1c-0.5,0-0.9,0-1.4,0c-0.2,0-0.4-0.2-0.5-0.4
		C219.2,71.9,217.2,69.5,215.1,67z"/>
	<path class="st1" d="M345.5-21.3c0,1.6,0,3.2,0,4.8c-3.2,0-6.5,0-9.7,0c0-1.6,0-3.2,0-4.8C339-21.3,342.2-21.3,345.5-21.3z"/>
	<path class="st1" d="M194.3,74.6c-0.6,0-1,0-1.6,0c0-1.7,0-3.4,0-5.1c-1.5,0.4-3,0.1-4.5,0c-0.5,0-1.1,0-1.6,0.1
		c-0.3,0-0.5,0.3-0.5,0.6c0,1.4,0,2.7,0,4.1c0,0.1,0,0.2,0,0.3c-0.5,0-1,0-1.6,0c0-3.7,0-7.3,0-11.1c0.5,0,1,0,1.6,0
		c0,1.5,0,3,0,4.5c1.5-0.4,3,0,4.5,0c0.5,0,1,0,1.5,0c0.4,0,0.6-0.2,0.6-0.7c0-1.3,0-2.5,0-3.8c0.6,0,1.1,0,1.6,0
		C194.3,67.2,194.3,70.9,194.3,74.6z"/>
	<path class="st1" d="M237.1,73c0,0.6,0,1.1,0,1.6c-2.8,0-5.6,0-8.4,0c0-3.7,0-7.4,0-11.1c2.6,0,5.1,0,7.8,0c0,0.5,0,1,0,1.6
		c-2,0-4.1,0-6.1,0c0,1.1,0,2.2,0,3.1c1.5-0.1,2.9-0.1,4.4-0.2c0,0.6,0,1.1,0,1.8c-1,0-2,0-3,0c-0.1,0-0.2,0-0.2,0
		c-1.2,0.1-1.2,0.1-1.2,1.3c0,0.6,0,1.2,0,1.9C232.5,73,234.8,73,237.1,73z"/>
	<path class="st1" d="M256.2,63.5c2.6,0,5.1,0,7.7,0c0,0.5,0,1,0,1.6c-2,0-4,0-6.1,0c0,1.1,0,2.2,0,3.1c1.5-0.1,2.9-0.1,4.4-0.2
		c0,0.6,0,1.1,0,1.7c-1,0-2,0-3,0c-1.5,0.1-1.5,0.1-1.5,1.6c0,0.5,0,1,0,1.6c2.3,0,4.5,0,6.8,0c0,0.6,0,1,0,1.6c-2.8,0-5.6,0-8.4,0
		C256.2,70.9,256.2,67.3,256.2,63.5z"/>
	<path class="st1" d="M393.1,63.6c0,0.5,0,1,0,1.6c-2,0-4,0-6.1,0c0,1.1,0,2.2,0,3.1c1.4-0.1,2.9-0.1,4.4-0.2c0,0.6,0,1.1,0,1.8
		c-1,0-2,0-3,0c-1.5,0.1-1.5,0.1-1.5,1.5c0,0.5,0,1.1,0,1.7c2.3,0,4.5,0,6.8,0c0,0.6,0,1.1,0,1.6c-2.8,0-5.6,0-8.4,0
		c0-3.7,0-7.3,0-11.1C387.9,63.6,390.4,63.6,393.1,63.6z"/>
	<path class="st1" d="M337.4,63.5c0,0.5,0,1,0,1.6c-2.1,0-4.1,0-6.1,0c0,1.1,0,2.1,0,3.1c1.5-0.1,2.9-0.1,4.4-0.2c0,0.6,0,1.1,0,1.7
		c-1,0-2.1,0-3.1,0c-1.4,0.1-1.4,0.1-1.4,1.5c0,0.6,0,1.1,0,1.8c2.3,0,4.6,0,6.8,0c0,0.6,0,1,0,1.6c-2.8,0-5.6,0-8.4,0
		c0-3.7,0-7.3,0-11.1C332.2,63.5,334.8,63.5,337.4,63.5z"/>
	<path class="st1" d="M359.3,68.3c1.5-0.1,2.9-0.1,4.5-0.2c0,0.6,0,1.1,0,1.7c-1,0-1.9,0-2.9,0c-1.6,0.1-1.6,0.1-1.6,1.7
		c0,0.5,0,1,0,1.5c2.3,0,4.6,0,6.8,0c0,0.6,0,1,0,1.6c-2.8,0-5.6,0-8.4,0c0-3.7,0-7.3,0-11c2.6,0,5.1,0,7.7,0c0,0.5,0,1,0,1.6
		c-2,0-4,0-6.1,0C359.3,66.3,359.3,67.3,359.3,68.3z"/>
	<path class="st1" d="M324.1,74.6c-0.5,0-1,0-1.6,0c0-1.7,0-3.4,0-5.1c-1.6,0.4-3,0.1-4.5,0c-0.5,0-1,0-1.5,0
		c-0.4,0-0.6,0.3-0.6,0.8c0,1.4,0,2.8,0,4.3c-0.5,0-1,0-1.6,0c0-3.7,0-7.4,0-11.1c0.5,0,1,0,1.6,0c0,1.5,0,3,0,4.5
		c1.5-0.4,3,0,4.5,0c0.5,0,1.1,0,1.6,0c0.4,0,0.5-0.3,0.5-0.6c0-1.3,0-2.5,0-3.8c0.5,0,1.1,0,1.6,0
		C324.1,67.2,324.1,70.9,324.1,74.6z"/>
	<path class="st1" d="M208.3,73c0,0.6,0,1.1,0,1.6c-2.8,0-5.6,0-8.4,0c0-3.7,0-7.4,0-11.1c2.6,0,5.2,0,7.8,0c0,0.5,0,1,0,1.6
		c-2,0-4.1,0-6.2,0c0,1.1,0,2.2,0,3.1c1.5-0.1,3-0.1,4.5-0.2c0,0.6,0,1.1,0,1.7c-0.7,0-1.3,0-2,0c-0.7,0-1.4,0.1-2,0.2
		c-0.2,0-0.5,0.3-0.5,0.5c0,0.8,0,1.7,0,2.6C203.8,73,206,73,208.3,73z"/>
	<path class="st1" d="M380.9,63.5c-0.6,1.4-1.2,2.8-1.7,4.1c-0.9,2.2-1.9,4.4-2.8,6.6c-0.1,0.3-0.3,0.4-0.6,0.4c-1.4,0-1.4,0-2-1.3
		c-1.3-3.1-2.6-6.2-3.9-9.3c-0.1-0.1-0.1-0.3-0.2-0.5c0.5,0,1,0,1.5,0c0.2,0,0.3,0.3,0.4,0.5c1.1,2.7,2.2,5.5,3.4,8.2
		c0.1,0.1,0.1,0.3,0.3,0.6c0.4-0.8,0.7-1.6,1-2.3c0.9-2.1,1.8-4.3,2.6-6.4c0.2-0.4,0.4-0.6,0.9-0.6
		C380.2,63.5,380.5,63.5,380.9,63.5z"/>
	<path class="st1" d="M246.3,72.7c0.1-0.2,0.2-0.4,0.3-0.6c1.1-2.6,2.2-5.2,3.2-7.8c0.2-0.6,0.5-0.8,1.1-0.8c0.3,0,0.6,0,1,0
		c-0.4,1-0.8,1.8-1.1,2.7c-1.1,2.6-2.2,5.2-3.2,7.8c-0.2,0.5-0.5,0.6-1,0.7c-0.9,0.1-1.4-0.3-1.7-1.1c-1.3-3.3-2.6-6.5-4-9.7
		c0-0.1,0-0.1-0.1-0.3c0.5,0,1,0,1.5,0c0.2,0,0.3,0.3,0.4,0.5c1.2,2.8,2.3,5.6,3.5,8.5C246.1,72.5,246.2,72.6,246.3,72.7z"/>
	<path class="st1" d="M309.8-78.2c0.5,1.6,1,3.1,1.5,4.7c-0.1,0-0.1,0.1-0.2,0.1c-0.8-0.8-1.6-1.6-2.4-2.4c-0.1-0.1-0.1-0.3-0.1-0.4
		c0.3-0.7,0.6-1.3,1-2C309.7-78.2,309.7-78.2,309.8-78.2z"/>
	<path class="st1" d="M283.2,76c0.2-0.2,0.3-0.3,0.5-0.5c0.5-0.5,0.4-0.7,0-1.2c-0.2-0.2-0.3-0.6-0.2-0.8c0.1-0.3,0.5-0.6,0.8-0.6
		c0.2-0.1,0.6,0.2,0.8,0.4c0.1,0.2,0.2,0.5,0.2,0.7c-0.1,1.1-0.7,1.9-1.7,2.5c-0.1-0.1-0.1-0.2-0.2-0.2
		C283.3,76.2,283.2,76.1,283.2,76z"/>
</g>
<rect x="438.9" y="-78.2" class="st1" width="3.8" height="152.9"/>
</svg>
