<?xml version="1.0" encoding="utf-8"?>
<!-- Generator: Adobe Illustrator 19.1.0, SVG Export Plug-In . SVG Version: 6.00 Build 0)  -->
<svg version="1.1" id="Layer_1" xmlns="http://www.w3.org/2000/svg" xmlns:xlink="http://www.w3.org/1999/xlink" x="0px" y="0px"
	 viewBox="0 0 100 100"  xml:space="preserve">
<style type="text/css">
	.st0{fill:#F0CA69;}
</style>
<g>
	<path class="st0" d="M247,127.9c0-1.2,0-2.4,0-3.7c1.1,0,2.1,0,3.1,0c0.7,0,0.7,0,1-0.7c1.1-3.6,3.6-5.7,7.2-6.6
		c0.6-0.1,1.3-0.1,1.9-0.1c4,0,8.1,0,12.1,0c0.2,0,0.4,0,0.6,0c0-0.3,0-0.5,0-0.7c0-1.4,0-2.9,0-4.3c0-0.3-0.1-0.5-0.4-0.5
		c-3.4-0.3-6.8-1-10-2.1c-2.9-1-5.7-2.4-8.3-4c-3.6-2.3-6.8-5-9.5-8.3c-2.6-3.1-4.6-6.5-6.2-10.3c-2.6-6.1-3.6-12.5-3.1-19.1
		c0.5-6.7,2.6-12.8,6.1-18.5c1.2-1.9,2.6-3.6,4-5.3c0.9,0.9,1.7,1.7,2.6,2.6c-7,8.4-10.1,18-8.9,28.9c1,8.5,4.7,15.8,10.7,21.8
		c4.5,4.4,9.8,7.5,15.8,9.2c6.1,1.7,12.2,1.8,18.3,0.5c6.2-1.4,11.5-4.2,16.3-8.3c0.9,0.9,1.8,1.7,2.7,2.5
		c-7.5,6.6-16.3,10.1-26.4,10.3c0,1.8,0,3.5,0,5.3c0.2,0,0.5,0,0.7,0c3.9,0,7.8,0,11.7,0c1.7,0,3.3,0.3,4.9,1.1
		c1.6,0.8,2.8,2.1,3.7,3.6c0.4,0.7,0.6,1.4,0.9,2.2c0.1,0.4,0.3,0.6,0.7,0.5c1.1,0,2.2,0,3.3,0c0,1.2,0,2.4,0,3.7
		C284,127.9,265.5,127.9,247,127.9z"/>
	<path class="st0" d="M277.4,16.1c0.7,0.4,1.4,0.9,2.1,1.3c1.6,1,3.2,2,4.8,3.1c0.2,0.2,0.5,0.3,0.7,0.6c5.5,5.5,11.1,11,16.6,16.6
		c0.7,0.7,1.5,0.6,2.3,0.4c3.8-0.9,7.7-1.9,11.5-2.8c4.7-1.1,9.4-2.3,14.1-3.4c1.8-0.4,3.5-0.9,5.3-1.3c2.9-0.7,5.8-1.4,8.7-2.1
		c0.1,0,0.3,0,0.4,0.1c0.4,0.4,0.9,0.8,1.3,1.2c-0.6,0.2-1,0.4-1.4,0.6c-10.1,4.4-20.2,8.9-30.3,13.3c-0.3,0.1-0.6,0.3-0.9,0.4
		c-1.7,0.7-2.1,2.4-0.7,3.7c1.6,1.6,3.3,3.3,4.9,4.9c5.9,5.8,11.7,11.7,17.5,17.5c0.6,0.6,1.4,0.8,2.2,0.7c2.8-0.4,5.6-0.8,8.4-1.2
		c0.1,0,0.3,0,0.4,0.1c0.4,0.3,0.7,0.7,1.1,1.1c-0.2,0.1-0.3,0.1-0.4,0.2c-3.1,1-6.1,2-9.2,3c-0.7,0.2-1.2,0.6-1.4,1.3
		c-0.7,2.1-1.4,4.2-2.2,6.3c-0.4,1.1-0.8,2.3-1.2,3.6c-0.4-0.5-0.8-0.9-1.1-1.3c-0.1-0.1-0.1-0.3-0.1-0.5c0.4-2.6,0.8-5.3,1.2-7.9
		c0-0.1,0-0.3,0.1-0.4c0.1-0.9-0.2-1.6-0.8-2.2c-1.9-1.9-3.8-3.8-5.8-5.8c-5.4-5.4-10.8-10.8-16.2-16.2c-0.2-0.2-0.4-0.4-0.6-0.6
		c-1.2-1.2-2.8-0.6-3.4,0.7c-0.9,1.9-1.8,3.8-2.7,5.7c-3,6.4-5.9,12.8-8.9,19.2c-1.4,3.1-2.8,6.1-4.3,9.2c-0.5-0.4-0.9-0.9-1.3-1.3
		c-0.1-0.1-0.1-0.2,0-0.3c0.3-1.1,0.6-2.1,0.9-3.2c0.2-0.9,0.4-1.8,0.7-2.7c0.5-1.7,0.9-3.4,1.4-5.1c0.4-1.3,0.8-2.7,1.1-4
		c1-3.9,2-7.7,3.1-11.6c0.9-3.5,1.9-7,2.8-10.6c0.4-1.4,0.7-2.7,1.1-4.1c0.3-0.9,0-1.7-0.7-2.4c-1.1-1.1-2.2-2.2-3.3-3.3
		c-4.4-4.4-8.8-8.7-13.1-13.1c-0.7-0.7-1.2-1.7-1.8-2.6c-1-1.5-1.9-3-2.9-4.5c-0.1-0.2-0.1-0.4-0.2-0.6
		C277.3,16.1,277.3,16.1,277.4,16.1z"/>
	<path class="st0" d="M247.9,77.9c-0.8-0.7-1.5-1.5-2.2-2c-1.2-0.9-1.8-2-1.7-3.5c0.1-1.4,0-2.9,0.1-4.3c0.2-4,1.3-7.8,3-11.4
		c0.1-0.1,0.3-0.3,0.4-0.3c3.2,0,6.5,0,9.7,0c0.2,0,0.4,0.1,0.5,0.2c1.7,1.1,3.4,2.3,5.2,3.4c0.8,0.5,1.5,0.5,2.4,0.1
		c1-0.5,2.1-1.1,3.2-1.6c0.2-0.1,0.4-0.1,0.6-0.1c2.1,0,4.2,0,6.2,0c0.2,0,0.5,0.1,0.7,0.2c1.5,1,3,2,4.5,3c0.2,0.1,0.3,0.3,0.4,0.5
		c0.4,0.8,0.9,1.7,1.3,2.5c0.1,0.2,0.2,0.5,0.2,0.8c0,1.6,0,3.2,0,4.8c0,0.5,0.1,1,0.3,1.4c0.4,0.9,0.9,1.8,1.3,2.7
		c0.1,0.2,0.1,0.5,0,0.7c-0.3,1-0.7,2.1-1,3.1c-0.1,0.3-0.3,0.4-0.6,0.4c-0.7,0-1.4,0-2.1,0c-0.8,0-1.4,0.3-1.8,1
		c-1.3,2-2.6,3.9-3.9,5.9c-0.4,0.6-0.5,1.2-0.3,1.9c0.4,1.6,0.8,3.3,1.2,4.9c0.1,0.4,0,0.5-0.4,0.5c0,0-0.1,0-0.1,0
		c-1.8,0-1.3,0.3-1.9-1.4c-1-3-2-6.1-3.1-9.1c-0.1-0.4-0.4-0.8-0.7-1.2c-1.9-2.5-3.8-5.1-5.7-7.6c-0.5-0.7-1.1-1-1.9-0.9
		c-1.3,0-2.5-0.1-3.8,0c-0.9,0.1-1.8,0.4-2.7,0.7c-1.2,0.4-2.4,0.8-3.6,1.2c-0.6,0.2-1.1,0.5-1.5,0.9
		C249.5,76.3,248.7,77.1,247.9,77.9z"/>
	<path class="st0" d="M246.1,81.9c0.2,0.1,0.3,0.2,0.4,0.3c1.1,0.7,2.1,0.7,3-0.2c1-1,2-2,3-3c0.3-0.3,0.6-0.4,1-0.3
		c0.8,0.1,1.5-0.1,2.1-0.8c0.2-0.2,0.5-0.4,0.9-0.5c0.6-0.2,1.1-0.4,1.7-0.5c0.4-0.1,0.9-0.1,1.3-0.1c1.5,0,1.5,0,2.4,1.2
		c1.3,1.7,2.5,3.4,3.9,5.1c0.5,0.7,0.8,1.5,1,2.3c0.4,1.2,0.8,2.4,1.2,3.6c0.6,1.7,1.1,3.4,1.7,5.2c0.2,0.5,0.4,1.1,0.6,1.6
		c0.3,0.8,1,1.2,1.8,1.2c2,0,4.1,0.1,6.1,0c1.4,0,2.3-1.3,1.9-2.7c-0.5-2.2-1.1-4.4-1.7-6.6c-0.1-0.3-0.1-0.5,0.1-0.8
		c0.8-1.2,1.7-2.5,2.5-3.7c0.2-0.3,0.4-0.4,0.8-0.4c0.7,0,1.3,0,2,0c0.2,0,0.3,0,0.5,0.1c-0.1,0.5-0.2,0.9-0.3,1.4
		c-0.3,0.8,0,1.4,0.5,2c1.3,1.4,2.7,2.7,4.1,4.1c1.3,1.3,3.1,0.7,3.6-0.6c0.2-0.5,0.4-0.9,0.6-1.4c0.1-0.2,0.2-0.4,0.4-0.7
		c0.4,1.1,0.7,2.1,1,3.2c0.2,0.8,0.6,1.4,1.2,2c0.6,0.6,1.2,1.2,1.8,1.8c0.3,0.3,0.3,0.5,0,0.7c-1,0.8-2.1,1.7-3.1,2.4
		c-2.1,1.4-4.3,2.6-6.6,3.4c-3.9,1.4-8,2-12.1,1.9c-6.2-0.1-11.8-2-16.9-5.4c-5.6-3.7-9.6-8.8-12.1-15c0-0.1-0.1-0.2-0.1-0.3
		C246.1,82,246.1,82,246.1,81.9z"/>
	<path class="st0" d="M249.6,52.3c0.5-0.7,1-1.4,1.5-2.1c1.8-2.1,3.8-4.1,6.1-5.7c3-2.2,6.3-3.9,9.9-4.9c1.5-0.4,3-0.7,4.5-0.9
		c2.5-0.4,5-0.4,7.6-0.2c2.4,0.2,4.8,0.8,7.1,1.5c2.8,0.9,5.4,2.2,7.9,3.8c0.3,0.2,0.4,0.4,0.3,0.8c-0.5,1.8-1,3.6-1.5,5.4
		c-0.8,3-1.6,6-2.4,9c-1.1,4-2.1,7.9-3.2,11.9c-0.1,0.3-0.1,0.6-0.2,1c-0.5-0.8-1-1.4-1-2.3c0-1.6,0-3.1,0-4.7c0-0.5-0.1-1-0.3-1.4
		c-0.6-1.2-1.2-2.4-1.8-3.6c-0.2-0.4-0.6-0.8-1-1.1c-1.9-1.3-3.9-2.6-5.8-3.9c-0.4-0.3-0.9-0.4-1.4-0.4c-2.5,0-5,0-7.5,0
		c-0.6,0-1.2,0.1-1.8,0.4c-0.7,0.4-1.5,0.7-2.2,1.1c-0.2,0.1-0.4,0.1-0.6-0.1c-1.5-1-3.1-2.1-4.7-3c-0.4-0.3-0.9-0.4-1.4-0.4
		c-2.4,0-4.8,0-7.3,0c-0.3,0-0.6,0-0.8,0C249.7,52.4,249.6,52.3,249.6,52.3z M283.3,45.3c-1.2-0.6-2.4-1.2-3.6-1.8
		c-0.4,0.8-0.9,1.6-1.2,2.4c-0.2,0.4-0.5,0.6-0.9,0.5c-0.5,0-1,0-1.6,0c-0.6,0-0.6,0-0.6-0.6c0-1,0-2,0-3c0-0.3-0.1-0.5-0.4-0.5
		c-0.4,0-0.8,0-1.2,0c-1.1-0.1-2,0.4-2.7,1.3c-0.6,0.7-1.2,1.4-1.8,2.2c-0.4,0.5-0.8,0.7-1.4,0.6c-0.9,0-1.7,0-2.6,0
		c0,1.3,0,2.6,0,4c0.1,0,0.3,0,0.4,0c4.6,0,9.2,0,13.7,0c0.8,0,1.3-0.3,1.7-1c0.5-1,1.1-2.1,1.6-3.1C282.9,46,283.1,45.7,283.3,45.3
		z"/>
	<path class="st0" d="M335.2,124.2c-3.7,0-7.4,0-11.1,0c0-4.9,0-9.8,0-14.8c3.7,0,7.4,0,11.1,0C335.2,114.4,335.2,119.3,335.2,124.2
		z"/>
	<path class="st0" d="M369.5,139.2c1,0,1.9,0,2.8,0c0.1,0,0.3,0.2,0.4,0.3c3.2,3.8,6.3,7.6,9.5,11.3c0,0.1,0.1,0.1,0.2,0.3
		c0-4,0-7.9,0-11.9c0.8,0,1.5,0,2.3,0c0,5.2,0,10.3,0,15.6c-0.7,0-1.4,0-2.1,0c-0.1,0-0.2-0.1-0.3-0.2c-2.8-3.4-5.7-6.8-8.5-10.2
		c0,0,0-0.1-0.1-0.2c0,0-0.1,0-0.1,0.1c0,3.5,0,7,0,10.6c-0.8,0-1.5,0-2.3,0c0-0.2,0-0.4,0-0.5c0-4.1,0-8.3,0-12.4
		c0-0.3-0.1-0.6-0.3-0.8C370.6,140.5,370.1,139.9,369.5,139.2z"/>
	<path class="st0" d="M215.9,146.9c0-4.4,3.7-8.1,8.3-8.1c4.8,0,8.5,3.6,8.5,8.3c0,4.6-3.7,8-8.3,8.1
		C219.6,155.3,215.9,151.5,215.9,146.9z M230.4,146.8c0-0.2,0-0.5-0.1-0.8c0-0.3-0.1-0.6-0.2-0.9c-0.9-2.5-3.1-4.1-5.9-4
		c-3.9,0-6.7,3.3-6,7.1c0.5,3,3.6,5.1,6.9,4.7C228.3,152.4,230.3,150.1,230.4,146.8z"/>
	<path class="st0" d="M345.4,146.8c-0.1-4.3,3.6-8,8.2-8c4.7-0.1,8.6,3.6,8.6,8.2c0,4.8-3.8,8.1-8.4,8.2
		C349.1,155.2,345.4,151.5,345.4,146.8z M353.4,141.1c-0.9,0-2,0.4-3.1,1.1c-2.4,1.6-3.4,5.1-2,7.6c1.8,3.2,6.1,4.2,9.1,2.1
		c2.3-1.6,3-4.3,2.3-6.6C358.9,142.6,356.4,141.1,353.4,141.1z"/>
	<path class="st0" d="M207.5,141.3c-0.5,0.6-0.9,1.1-1.4,1.7c-0.9-0.8-1.9-1.3-3-1.6c-3.4-0.9-6.7,1.1-7.5,4.2
		c-0.8,3,0.7,5.7,3.3,6.9c2.3,1,4.4,0.8,6.4-0.7c0.2-0.1,0.3-0.4,0.3-0.6c0-0.8,0-1.6,0-2.5c-0.6,0-1.1,0-1.6,0
		c-0.3,0-0.4-0.1-0.5-0.3c-0.2-0.6-0.5-1.3-0.8-1.9c1.7,0,3.4,0,5.2,0c0,0.2,0,0.3,0,0.5c0,1.7,0,3.4,0,5.2c0,0.2-0.1,0.5-0.3,0.7
		c-1.6,1.7-3.6,2.5-5.9,2.6c-3.6,0.1-6.9-2.2-8-5.5c-1.7-5.1,1.3-9.6,6.1-10.7c2.8-0.6,5.3,0.1,7.5,2c0.1,0.1,0.2,0.1,0.2,0.2
		C207.5,141.2,207.5,141.2,207.5,141.3z"/>
	<path class="st0" d="M272.4,142.9c-0.6-0.4-1.1-0.8-1.6-1.1c-1.3-0.7-2.7-0.9-4.2-0.6c-0.8,0.2-1.5,0.6-1.9,1.4
		c-0.8,1.4-0.1,2.5,1.3,2.7c1,0.2,2,0.1,3,0.2c0.9,0.1,1.8,0.2,2.6,0.4c1.8,0.5,2.8,1.7,2.9,3.6c0.2,2-0.6,3.6-2.4,4.6
		c-2.9,1.6-6.7,1.7-9.6-0.7c-0.5-0.4-0.9-0.9-1.4-1.4c0.6-0.5,1.1-1,1.6-1.5c0.3,0.3,0.5,0.5,0.8,0.7c2.1,2,4.9,2,7.2,1
		c1.2-0.5,1.6-1.5,1.4-2.7c-0.1-0.9-0.7-1.4-1.5-1.6c-0.8-0.2-1.7-0.2-2.5-0.3c-1.2,0-2.4-0.1-3.6-0.5c-2.9-0.9-3.2-3.8-2.1-5.7
		c1-1.8,2.7-2.6,4.6-2.8c2.3-0.2,4.4,0.4,6.2,1.9c0.2,0.2,0.4,0.4,0.6,0.6C273.4,141.8,272.9,142.4,272.4,142.9z"/>
	<path class="st0" d="M324.6,152c0.6-0.5,1.1-1,1.5-1.4c0.8,0.6,1.5,1.3,2.3,1.7c2.1,1,4.3,0.9,6.3-0.4c0.8-0.5,1.1-1.4,0.9-2.3
		c-0.2-0.9-0.7-1.5-1.6-1.6c-1.1-0.2-2.2-0.2-3.4-0.3c-0.9-0.1-1.8-0.2-2.7-0.5c-2.7-0.8-3.2-3.5-2.1-5.5c0.9-1.8,2.5-2.7,4.5-2.9
		c2.5-0.3,4.8,0.4,6.7,2.1c0.1,0.1,0.2,0.2,0.4,0.3c-0.5,0.6-1,1.2-1.4,1.7c-0.6-0.4-1-0.8-1.6-1.1c-1.7-0.8-3.5-1.2-5.3-0.1
		c-0.8,0.5-1.2,1.2-1.1,2.2c0.1,0.9,0.8,1.2,1.5,1.4c0.5,0.1,1,0.1,1.5,0.2c1.1,0.1,2.2,0.1,3.3,0.2c1.5,0.2,3,0.8,3.5,2.4
		c0.8,2.2,0.3,4.5-1.9,5.8c-3.4,2-7.9,1.8-10.9-1.7C324.7,152.2,324.7,152.1,324.6,152z"/>
	<path class="st0" d="M283,139.3c3.7,0,7.3,0,11,0c0,0.8,0,1.5,0,2.3c-2.9,0-5.7,0-8.6,0c0,1.6,0,3.1,0,4.6c2-0.8,4.2-0.4,6.3-0.5
		c0,0.8,0,1.5,0,2.3c-0.9,0-1.8,0-2.7,0c-0.8,0-1.6,0.1-2.4,0.2c0,0-0.1,0-0.1,0c-1,0.2-1.1,0.3-1.1,1.3c0,1,0,2,0,3
		c3.2,0,6.4,0,9.6,0c0,0.8,0,1.5,0,2.3c-4,0-7.9,0-11.9,0C283,149.6,283,144.5,283,139.3z"/>
	<path class="st0" d="M307.8,139c0.8,0,1.5,0,2.2,0c0.3,0,0.4,0.2,0.5,0.4c1.6,3.4,3.2,6.8,4.8,10.2c0.7,1.6,1.5,3.2,2.2,4.8
		c0.1,0.1,0.1,0.3,0.2,0.5c-0.8,0-1.6,0-2.4,0c-0.1,0-0.2-0.2-0.3-0.3c-0.3-0.6-0.5-1.2-0.8-1.8c-0.1-0.1-0.2-0.2-0.3-0.2
		c-2,0-4,0-6,0.1c-0.9,0-1.9,0.3-2.6,0.9c-0.4,0.3-0.6,0.7-0.9,1c-0.1,0.2-0.2,0.3-0.5,0.3c-0.7,0-1.4,0-2.1,0
		c0.1-0.2,0.1-0.3,0.2-0.5c2.1-4.3,4.2-8.7,6.3-13c0.2-0.3,0.2-0.6,0-1C308.2,140,308,139.5,307.8,139z M309.8,143.7
		c-1.2,2.5-2.3,4.9-3.4,7.4c2.2-1.2,4.5-0.7,6.8-0.8C312,148,310.9,145.9,309.8,143.7z"/>
	<path class="st0" d="M240.4,150.8c0-0.8,0-1.5,0-2.2c0-0.1,0.1-0.3,0.2-0.4c2.4-3,4.8-5.9,7.2-8.9c0.1-0.2,0.4-0.3,0.6-0.3
		c0.8,0,1.6,0,2.4,0c0,3.2,0,6.3,0,9.4c0.8,0,1.5,0,2.3,0c-0.3,0.8-0.6,1.5-0.9,2.2c0,0.1-0.2,0.1-0.3,0.1c-0.4,0-0.7,0-1.2,0
		c0,1.3,0,2.6,0,4c-0.8,0-1.5,0-2.3,0c0-1.3,0-2.6,0-4C245.9,150.8,243.2,150.8,240.4,150.8z M248.6,148.5c0-2.2,0-4.4,0-6.7
		c-1.8,2.3-3.5,4.5-5.3,6.7C245.1,148.5,246.9,148.5,248.6,148.5z"/>
	<path class="st0" d="M303.7,64.6c1,1,1.9,1.9,2.8,2.8c0.5,0.5,1,1.1,1.8,1.2c0.1,0,0.2,0.3,0.2,0.4c0,1.3,0,2.5-0.1,3.8
		c-0.1,1.2-0.3,2.4-0.4,3.6c0,0.3-0.2,0.3-0.4,0.3c-1.5,0-2.9,0-4.4,0c-0.8,0-1.6,0-2.4,0c-0.9,0-1.5,0.3-2.1,0.9
		c-0.5,0.6-1.1,1.1-1.7,1.6C299.2,74.3,301.4,69.5,303.7,64.6z"/>
	<path class="st0" d="M306.6,80.7c-0.1,0.6-0.1,1.1-0.3,1.6c-1.3,3.4-3.2,6.5-5.6,9.3c-0.1,0.1-0.1,0.1-0.2,0.3
		c-0.4-0.4-0.8-0.8-1.2-1.2c-0.8-0.7-1.3-1.6-1.6-2.6c-0.2-0.9-0.6-1.8-0.9-2.6c-0.1-0.3,0-0.4,0.1-0.6c1.4-1.4,2.7-2.7,4.1-4.1
		c0.1-0.1,0.3-0.2,0.5-0.2c1.6,0,3.2,0,4.8,0C306.3,80.7,306.4,80.7,306.6,80.7z"/>
	<path class="st0" d="M316.7,109.4c1.2,0,2.4,0,3.7,0c0,4.9,0,9.8,0,14.8c-1.2,0-2.4,0-3.7,0C316.7,119.3,316.7,114.4,316.7,109.4z"
		/>
	<path class="st0" d="M342.6,124.2c-1.2,0-2.4,0-3.6,0c0-4.9,0-9.8,0-14.8c1.2,0,2.4,0,3.6,0C342.6,114.4,342.6,119.3,342.6,124.2z"
		/>
	<path class="st0" d="M299.7,166.2c0.4,0,0.7,0,1,0c0.1,0,0.3,0.2,0.3,0.3c0.6,1.9,1.3,3.8,1.9,5.7c0,0,0,0,0.1,0.1
		c0.1-0.4,0.3-0.7,0.4-1c0.5-1.6,1.1-3.2,1.6-4.9c0.1-0.3,0.2-0.4,0.5-0.3c0.3,0,0.6,0,0.9,0c-0.9,2.8-1.8,5.6-2.7,8.4
		c-0.4,0-0.8,0-1.1,0c-0.1,0-0.2-0.2-0.3-0.3c-0.5-1.4-0.9-2.8-1.4-4.3c0-0.1-0.1-0.2-0.1-0.3c-0.3,0.8-0.5,1.6-0.7,2.3
		c-0.3,0.8-0.5,1.6-0.8,2.4c0,0.1-0.2,0.3-0.3,0.3c-0.4,0-0.8,0-1.1,0c-1-2.8-1.9-5.6-2.9-8.4c0.4,0,0.8,0,1.1,0
		c0.1,0,0.2,0.2,0.3,0.3c0.6,1.7,1.2,3.5,1.9,5.2c0.1,0.2,0.1,0.4,0.3,0.7c0.2-0.5,0.3-0.9,0.4-1.3c0.3-0.9,0.6-1.9,0.9-2.8
		c0.2-0.6,0.2-1.2,0-1.8C299.8,166.5,299.8,166.4,299.7,166.2z"/>
	<path class="st0" d="M197,166.2c0.4,0,0.7,0,1,0c0.1,0,0.3,0.2,0.3,0.3c0.7,1.8,1.3,3.7,2,5.5c0,0.1,0.1,0.2,0.2,0.4
		c0.4-1.2,0.7-2.4,1.1-3.5c0.3-0.9,0.6-1.8-0.1-2.8c0.5,0,0.9,0,1.2,0c0.1,0,0.2,0.2,0.3,0.4c0.6,1.8,1.2,3.6,1.8,5.4
		c0,0.1,0.1,0.2,0.2,0.5c0.2-0.7,0.4-1.3,0.6-2c0.4-1.3,0.9-2.6,1.3-3.9c0.1-0.3,0.2-0.4,0.5-0.4c0.3,0,0.6,0,0.9,0
		c-0.2,0.6-0.4,1.2-0.5,1.7c-0.6,2.1-1.3,4.1-1.9,6.2c-0.1,0.4-0.3,0.6-0.7,0.5c-0.1,0-0.1,0-0.2,0c-0.5,0.1-0.7-0.1-0.8-0.6
		c-0.4-1.4-0.9-2.8-1.4-4.3c-0.2,0.7-0.4,1.3-0.6,1.8c-0.3,0.9-0.6,1.9-0.9,2.8c-0.1,0.2-0.2,0.3-0.4,0.3c-1,0-1,0-1.3-0.9
		c-0.8-2.4-1.6-4.8-2.4-7.2C197.1,166.4,197,166.3,197,166.2z"/>
	<path class="st0" d="M373.5,166.2c0.1,0,0.2,0,0.3,0c1.5,0,2.9,0,4.4,0c1,0,1.7,0.5,2.1,1.4c0.4,0.9,0.3,1.8-0.2,2.5
		c-0.2,0.3-0.6,0.5-0.9,0.7c-0.2,0.1-0.3,0.2-0.6,0.3c0.6,0.9,0.7,2.3,2.3,2.3c0,0.4,0,0.8,0,1.2c-0.9,0.2-1.9-0.1-2.3-0.9
		c-0.4-0.7-0.8-1.5-1.1-2.2c-0.1-0.2-0.2-0.3-0.5-0.3c-0.5,0-1,0-1.6,0.1c-0.6,0.1-0.7,0.2-0.7,0.8c0,0.9,0,1.7,0,2.6
		c-0.4,0-0.8,0-1.2,0C373.5,171.8,373.5,169,373.5,166.2z M374.7,170c1-0.1,1.9-0.1,2.8-0.2c0.3,0,0.5,0,0.8,0
		c0.6-0.1,1.1-0.6,1.1-1.2c0-0.7-0.4-1.2-1.1-1.2c-1.1,0-2.2,0-3.3,0c-0.1,0-0.3,0.2-0.3,0.2C374.7,168.5,374.7,169.3,374.7,170z"/>
	<path class="st0" d="M336.6,171.1c1.1,2.2,1.1,2.2,2.2,2.3c0,0.4,0,0.8,0,1.2c-0.9,0.2-1.9-0.1-2.3-0.9c-0.4-0.7-0.8-1.4-1.1-2.2
		c-0.1-0.2-0.2-0.3-0.5-0.3c-0.5,0-1.1,0-1.6,0.1c-0.4,0-0.6,0.2-0.6,0.7c0,0.9,0,1.7,0,2.7c-0.4,0-0.8,0-1.2,0c0-2.8,0-5.5,0-8.3
		c0.1,0,0.2,0,0.3,0c1.5,0,2.9,0,4.4,0c0.9,0,1.7,0.4,2.1,1.3c0.4,0.9,0.4,1.8-0.2,2.6c-0.2,0.3-0.5,0.5-0.8,0.7
		C337,170.9,336.8,171,336.6,171.1z M332.7,167.4c0,0.9,0,1.8,0,2.6c0.8-0.1,1.6-0.1,2.4-0.2c0.4,0,0.7,0,1.1,0c0.6-0.1,1-0.5,1-1.1
		c0-0.7-0.4-1.2-1-1.2C335.1,167.4,333.9,167.4,332.7,167.4z"/>
	<path class="st0" d="M281,171.1c0.6,0.9,0.7,2.3,2.3,2.3c0,0.4,0,0.8,0,1.2c-1.1,0.2-1.9-0.2-2.4-1.1c-0.4-0.7-0.7-1.3-1-2
		c-0.1-0.3-0.3-0.4-0.5-0.3c-0.5,0-1.1,0.1-1.6,0.1c-0.4,0-0.6,0.2-0.6,0.7c0,0.9,0,1.8,0,2.7c-0.4,0-0.8,0-1.2,0c0-2.8,0-5.6,0-8.4
		c0.4,0,0.8,0,1.2,0c1.1,0,2.3,0,3.4,0c0.9,0,1.7,0.4,2.1,1.3c0.5,0.9,0.4,1.8-0.2,2.7c-0.2,0.3-0.6,0.5-0.9,0.7
		C281.4,170.9,281.3,171,281,171.1z M277.2,170c1,0,2.1-0.1,3.1-0.1c0.2,0,0.4,0,0.6,0c0.6-0.1,0.9-0.6,0.9-1.2c0-0.7-0.4-1.2-1-1.2
		c-1.1,0-2.3,0-3.4,0c-0.1,0-0.1,0-0.2,0.1C277.2,168.4,277.2,169.2,277.2,170z"/>
	<path class="st0" d="M234.8,168.8c0,2,0,3.9,0,5.7c-0.4,0-0.8,0-1.2,0c0-0.1,0-0.3,0-0.5c0-2,0-4,0-5.9c0-0.6-0.1-1-0.5-1.4
		c-0.1-0.1-0.3-0.3-0.5-0.6c0.5,0,1,0,1.4,0c0.1,0,0.3,0.2,0.4,0.3c1.6,1.9,3.2,3.9,4.8,5.8c0.1,0.1,0.1,0.2,0.2,0.3
		c0,0,0.1,0,0.1-0.1c0-2.1,0-4.2,0-6.3c0.4,0,0.8,0,1.2,0c0,2.8,0,5.6,0,8.4c-0.4,0-0.7,0-1,0c-0.1,0-0.3-0.2-0.4-0.3
		C237.9,172.5,236.4,170.7,234.8,168.8z"/>
	<path class="st0" d="M333.4,102c0,1.2,0,2.4,0,3.7c-2.5,0-4.9,0-7.3,0c0-1.2,0-2.4,0-3.7C328.5,102,330.9,102,333.4,102z"/>
	<path class="st0" d="M219.1,174.6c-0.4,0-0.8,0-1.2,0c0-1.3,0-2.6,0-3.9c-1.2,0.3-2.3,0-3.4,0c-0.4,0-0.8,0-1.2,0.1
		c-0.3,0-0.3,0.2-0.3,0.5c0,1,0,2.1,0,3.1c0,0.1,0,0.1,0,0.2c-0.4,0-0.8,0-1.2,0c0-2.8,0-5.6,0-8.4c0.4,0,0.8,0,1.2,0
		c0,1.1,0,2.2,0,3.4c1.2-0.3,2.3,0,3.4,0c0.4,0,0.7,0,1.1,0c0.3,0,0.5-0.2,0.5-0.5c0-0.9,0-1.9,0-2.9c0.4,0,0.8,0,1.2,0
		C219.1,169,219.1,171.7,219.1,174.6z"/>
	<path class="st0" d="M251.4,173.3c0,0.4,0,0.8,0,1.2c-2.1,0-4.2,0-6.4,0c0-2.8,0-5.6,0-8.4c1.9,0,3.9,0,5.9,0c0,0.4,0,0.8,0,1.2
		c-1.5,0-3.1,0-4.6,0c0,0.9,0,1.7,0,2.3c1.1-0.1,2.2-0.1,3.4-0.2c0,0.5,0,0.8,0,1.3c-0.8,0-1.5,0-2.3,0c-0.1,0-0.1,0-0.2,0
		c-0.9,0.1-0.9,0.1-0.9,1c0,0.5,0,0.9,0,1.4C247.9,173.3,249.6,173.3,251.4,173.3z"/>
	<path class="st0" d="M265.9,166.2c2,0,3.9,0,5.8,0c0,0.4,0,0.8,0,1.2c-1.5,0-3,0-4.6,0c0,0.9,0,1.6,0,2.4c1.1-0.1,2.2-0.1,3.4-0.2
		c0,0.5,0,0.8,0,1.3c-0.8,0-1.5,0-2.2,0c-1.2,0.1-1.2,0.1-1.2,1.2c0,0.4,0,0.8,0,1.2c1.7,0,3.4,0,5.2,0c0,0.4,0,0.8,0,1.2
		c-2.1,0-4.2,0-6.4,0C265.9,171.8,265.9,169,265.9,166.2z"/>
	<path class="st0" d="M369.4,166.2c0,0.4,0,0.8,0,1.2c-1.5,0-3.1,0-4.6,0c0,0.8,0,1.6,0,2.3c1.1-0.1,2.2-0.1,3.4-0.2
		c0,0.5,0,0.8,0,1.3c-0.8,0-1.5,0-2.3,0c-1.1,0-1.1,0.1-1.1,1.1c0,0.4,0,0.8,0,1.3c1.7,0,3.4,0,5.2,0c0,0.4,0,0.8,0,1.2
		c-2.1,0-4.2,0-6.4,0c0-2.8,0-5.6,0-8.4C365.4,166.2,367.4,166.2,369.4,166.2z"/>
	<path class="st0" d="M327.3,166.2c0,0.4,0,0.8,0,1.2c-1.6,0-3.1,0-4.6,0c0,0.8,0,1.6,0,2.3c1.1,0,2.2-0.1,3.4-0.1
		c0,0.5,0,0.8,0,1.3c-0.8,0-1.6,0-2.3,0c-1.1,0.1-1,0.1-1.1,1.1c0,0.4,0,0.9,0,1.3c1.7,0,3.4,0,5.2,0c0,0.4,0,0.8,0,1.2
		c-2.1,0-4.2,0-6.4,0c0-2.8,0-5.6,0-8.4C323.3,166.2,325.3,166.2,327.3,166.2z"/>
	<path class="st0" d="M343.8,169.7c1.1,0,2.2-0.1,3.4-0.1c0,0.5,0,0.8,0,1.3c-0.7,0-1.4,0-2.2,0c-1.2,0.1-1.2,0.1-1.2,1.3
		c0,0.4,0,0.7,0,1.2c1.7,0,3.4,0,5.2,0c0,0.4,0,0.8,0,1.2c-2.1,0-4.2,0-6.4,0c0-2.8,0-5.5,0-8.4c1.9,0,3.9,0,5.8,0
		c0,0.4,0,0.8,0,1.2c-1.5,0-3.1,0-4.6,0C343.8,168.3,343.8,169,343.8,169.7z"/>
	<path class="st0" d="M317.2,174.6c-0.4,0-0.8,0-1.2,0c0-1.3,0-2.6,0-3.9c-1.2,0.3-2.3,0-3.4,0c-0.4,0-0.7,0-1.1,0
		c-0.3,0-0.5,0.2-0.5,0.6c0,1.1,0,2.1,0,3.2c-0.4,0-0.8,0-1.2,0c0-2.8,0-5.6,0-8.4c0.4,0,0.8,0,1.2,0c0,1.1,0,2.3,0,3.4
		c1.2-0.3,2.3,0,3.4,0c0.4,0,0.8,0,1.2,0c0.3,0,0.4-0.2,0.4-0.5c0-0.9,0-1.9,0-2.9c0.4,0,0.8,0,1.2,0
		C317.2,169,317.2,171.8,317.2,174.6z"/>
	<path class="st0" d="M229.6,173.3c0,0.4,0,0.8,0,1.2c-2.1,0-4.2,0-6.4,0c0-2.8,0-5.6,0-8.4c1.9,0,3.9,0,5.9,0c0,0.4,0,0.8,0,1.2
		c-1.5,0-3.1,0-4.7,0c0,0.8,0,1.6,0,2.3c1.1-0.1,2.2-0.1,3.4-0.2c0,0.5,0,0.8,0,1.3c-0.5,0-1,0-1.5,0c-0.5,0-1,0.1-1.5,0.2
		c-0.1,0-0.4,0.2-0.4,0.3c0,0.6,0,1.3,0,2C226.2,173.3,227.9,173.3,229.6,173.3z"/>
	<path class="st0" d="M360.2,166.2c-0.5,1.1-0.9,2.1-1.3,3.1c-0.7,1.7-1.4,3.3-2.1,5c-0.1,0.2-0.2,0.3-0.5,0.3c-1.1,0-1.1,0-1.5-1
		c-1-2.3-1.9-4.7-2.9-7c0-0.1-0.1-0.2-0.1-0.4c0.4,0,0.8,0,1.1,0c0.1,0,0.3,0.2,0.3,0.3c0.9,2.1,1.7,4.1,2.5,6.2
		c0,0.1,0.1,0.2,0.2,0.4c0.3-0.6,0.5-1.2,0.7-1.7c0.7-1.6,1.3-3.2,2-4.9c0.1-0.3,0.3-0.5,0.7-0.4
		C359.6,166.2,359.9,166.2,360.2,166.2z"/>
	<path class="st0" d="M258.3,173.1c0.1-0.2,0.2-0.3,0.2-0.5c0.8-2,1.7-3.9,2.4-5.9c0.2-0.5,0.4-0.6,0.9-0.6c0.2,0,0.4,0,0.7,0
		c-0.3,0.7-0.6,1.4-0.9,2.1c-0.8,2-1.7,3.9-2.5,5.9c-0.2,0.4-0.4,0.5-0.8,0.5c-0.7,0.1-1-0.2-1.3-0.9c-1-2.5-2-4.9-3-7.3
		c0-0.1,0-0.1-0.1-0.3c0.4,0,0.8,0,1.1,0c0.1,0,0.3,0.2,0.3,0.4c0.9,2.1,1.7,4.3,2.6,6.4C258.2,173,258.3,173,258.3,173.1z"/>
	<path class="st0" d="M306.4,59c0.4,1.2,0.8,2.4,1.1,3.6c0,0-0.1,0-0.1,0.1c-0.6-0.6-1.2-1.2-1.8-1.8c-0.1-0.1-0.1-0.2,0-0.3
		c0.2-0.5,0.5-1,0.7-1.5C306.3,59,306.3,59,306.4,59z"/>
	<path class="st0" d="M286.3,175.6c0.1-0.1,0.3-0.2,0.4-0.3c0.4-0.4,0.3-0.5,0-0.9c-0.1-0.1-0.3-0.5-0.2-0.6
		c0.1-0.2,0.4-0.4,0.6-0.5c0.2,0,0.4,0.2,0.6,0.3c0.1,0.1,0.2,0.4,0.1,0.5c-0.1,0.8-0.5,1.5-1.3,1.9c-0.1-0.1-0.1-0.1-0.1-0.2
		C286.3,175.7,286.3,175.7,286.3,175.6z"/>
</g>
</svg>
